# xmcd
# Copyright (C) 1995-1998 Ti Kan
#
# Track frame offsets:
#       150
#       17202
#       36257
#       54525
#       72849
#       90374
#       108056
#       124881
#       141738
#       164934
#       181013
#
# Disc length: 3112 seconds
#
# Revision: 0
# Processed by: cddbd v1.5.2PL0 Copyright (c) Steve Scherf et al.
# Submitted via: CD-Import v1.0
#
DISCID=9a0c260b
DTITLE=Rez-Edit - Baobab Casino
DYEAR=07
DGENRE=
TTITLE0=Give Me
TTITLE1=Loomonada
TTITLE2=Les Femmes A Marier
TTITLE3=Tous Pareils
TTITLE4=Chanter Français
TTITLE5=Décadence
TTITLE6=Ok
TTITLE7=Quand On Est Jeune
TTITLE8=Rocky Guitare
TTITLE9=Ce Que Je Fais
TTITLE10=Kids
EXTD=
EXTT0=
EXTT1=
EXTT2=
EXTT3=
EXTT4=
EXTT5=
EXTT6=
EXTT7=
EXTT8=
EXTT9=
EXTT10=
PLAYORDER=
